<svg xmlns="http://www.w3.org/2000/svg" width="51.427" height="45.645" viewBox="0 0 51.427 45.645">
  <path id="Icon_ionic-logo-facebook" data-name="Icon ionic-logo-facebook" d="M61.421,3.442H15.673a2.7,2.7,0,0,0-2.839,2.52V46.568a2.7,2.7,0,0,0,2.839,2.52H38.547V31.02H32.4V24.363h6.147V19.442c0-5.9,4.607-9.105,10.54-9.105,2.839,0,5.893.19,6.6.273v6.157H50.962c-3.228,0-3.844,1.355-3.844,3.352v4.244h7.687l-1,6.657H47.118V49.088h14.3a2.7,2.7,0,0,0,2.839-2.52V5.962A2.7,2.7,0,0,0,61.421,3.442Z" transform="translate(-12.834 -3.442)" fill="#fff"/>
</svg>
